# File created by Blade
# Date/Time:  Mon Sep 22 17:38:34 2014
# Frame Rate: 120.000 fps
#------------------------------------------------------
:FULLY-SPECIFIED
:DEGREES
4211
root 6.785155 37.176748 6.800642 -6.329010 -4.583783 1.391299
RightUpLeg 9.090091 1.699159 -3.255054
RightLeg 6.638034 -0.000000 -0.000000
RightFoot -16.390339 -12.758543 18.478758
RightToeBase 10.871509 -0.000000 -0.000000
LeftUpLeg 10.936590 -12.799405 -4.617528
LeftLeg 6.232938 -0.000000 -0.000000
LeftFoot -19.255959 25.488621 -23.343954
LeftToeBase 6.930724 -0.000000 -0.000000
Spine 9.761356 5.382748 -6.116874
RightShoulder 4.602146 -19.602109 -13.836217
RightArm 48.431397 -20.690798 50.087790
RightForeArm -5.310988 -0.000000 112.184998
RightHand 0.726468 -0.000000 -21.634788
RightHandThumb1 -24.326973 -0.000000 -32.862282
LeftShoulder -15.325895 33.295692 -0.256917
LeftArm 59.487900 14.471598 -53.404983
LeftForeArm 29.861816 -0.000000 102.078349
LeftHand -19.503282 -0.000000 0.077863
LeftHandThumb1 -26.253704 0.000000 33.147579
Head 0.657273 2.791351 3.207594
4212
root 6.833453 37.179255 6.816301 -6.267702 -4.828740 1.349115
RightUpLeg 8.956401 1.565986 -3.336867
RightLeg 6.721990 -0.000000 -0.000000
RightFoot -16.253959 -12.450592 18.486340
RightToeBase 10.811104 -0.000000 -0.000000
LeftUpLeg 11.066123 -12.798201 -4.686685
LeftLeg 5.939474 -0.000000 -0.000000
LeftFoot -19.261279 25.791258 -23.306205
LeftToeBase 6.999637 -0.000000 -0.000000
Spine 9.654011 5.509058 -6.217078
RightShoulder 4.506180 -19.711162 -13.781315
RightArm 48.283350 -20.976341 49.964595
RightForeArm -5.304125 0.000000 111.993323
RightHand 0.727459 -0.000000 -21.690278
RightHandThumb1 -24.326973 -0.000000 -32.862282
LeftShoulder -15.432492 33.300798 -0.288732
LeftArm 59.150768 14.258765 -53.581421
LeftForeArm 29.416979 0.000000 102.181693
LeftHand -19.811317 -0.000000 0.622454
LeftHandThumb1 -26.253704 0.000000 33.147579
Head 0.545989 2.917415 3.340724
4213
root 6.884930 37.182691 6.833844 -6.194085 -5.070519 1.309781
RightUpLeg 8.818950 1.412047 -3.435789
RightLeg 6.793395 -0.000000 -0.000000
RightFoot -16.107539 -12.102159 18.520076
RightToeBase 10.772143 -0.000000 -0.000000
LeftUpLeg 11.196533 -12.775818 -4.753959
LeftLeg 5.613727 -0.000000 -0.000000
LeftFoot -19.231123 26.064771 -23.282665
LeftToeBase 7.011527 -0.000000 -0.000000
Spine 9.515567 5.629242 -6.307560
RightShoulder 4.424660 -19.816399 -13.696122
RightArm 48.013115 -21.222691 49.855092
RightForeArm -5.261051 -0.000000 111.815656
RightHand 0.718950 -0.000000 -21.617700
RightHandThumb1 -24.326973 -0.000000 -32.862282
LeftShoulder -15.548917 33.445773 -0.378291
LeftArm 58.872987 13.914417 -53.809795
LeftForeArm 28.891588 -0.000000 102.325780
LeftHand -20.090744 -0.000000 0.937602
LeftHandThumb1 -26.253704 0.000000 33.147579
Head 0.493122 2.971738 3.428801
4214
root 6.937079 37.185075 6.848835 -6.138182 -5.265956 1.290811
RightUpLeg 8.713807 1.250779 -3.548803
RightLeg 6.841765 -0.000000 -0.000000
RightFoot -15.974434 -11.805556 18.548527
RightToeBase 10.736755 -0.000000 -0.000000
LeftUpLeg 11.323095 -12.785228 -4.845361
LeftLeg 5.316883 -0.000000 -0.000000
LeftFoot -19.194065 26.307208 -23.270923
LeftToeBase 7.048650 -0.000000 -0.000000
Spine 9.420709 5.692142 -6.420757
RightShoulder 4.325745 -19.890309 -13.598516
RightArm 47.714777 -21.463614 49.729915
RightForeArm -5.145221 -0.000000 111.601750
RightHand 0.725589 -0.000000 -21.531948
RightHandThumb1 -24.326973 -0.000000 -32.862282
LeftShoulder -15.726360 33.450238 -0.472360
LeftArm 58.536326 13.651308 -54.025113
LeftForeArm 28.866739 0.000000 102.415413
LeftHand -20.452972 -0.000000 1.467525
LeftHandThumb1 -26.253704 0.000000 33.147579
Head 0.394517 3.098194 3.575619
4215
root 6.989712 37.186885 6.862923 -6.065813 -5.421745 1.272049
RightUpLeg 8.607613 1.047253 -3.669318
RightLeg 6.867647 -0.000000 -0.000000
RightFoot -15.846365 -11.505651 18.574636
RightToeBase 10.716655 -0.000000 -0.000000
LeftUpLeg 11.439621 -12.874251 -4.950944
LeftLeg 5.009123 -0.000000 -0.000000
LeftFoot -19.184777 26.603068 -23.270164
LeftToeBase 7.035529 -0.000000 -0.000000
Spine 9.305766 5.730891 -6.524980
RightShoulder 4.195946 -20.055236 -13.494070
RightArm 47.440771 -21.646319 49.573136
RightForeArm -4.991152 0.000000 111.376098
RightHand 0.701606 -0.000000 -21.478018
RightHandThumb1 -24.326973 -0.000000 -32.862282
LeftShoulder -15.809944 33.412455 -0.508557
LeftArm 58.061753 13.343230 -54.379129
LeftForeArm 28.431384 -0.000000 102.556009
LeftHand -20.485592 -0.000000 1.845782
LeftHandThumb1 -26.253704 0.000000 33.147579
Head 0.326342 3.196878 3.651039
4216
root 7.018924 37.190435 6.890704 -6.075735 -5.725284 1.204908
RightUpLeg 8.583187 1.032113 -3.683578
RightLeg 6.907689 -0.000000 -0.000000
RightFoot -15.713040 -11.220957 18.646415
RightToeBase 10.684471 -0.000000 -0.000000
LeftUpLeg 11.708413 -12.595715 -4.919400
LeftLeg 4.588879 -0.000000 -0.000000
LeftFoot -19.048085 26.685575 -23.174373
LeftToeBase 7.063911 -0.000000 -0.000000
Spine 9.241665 5.932710 -6.616787
RightShoulder 4.079308 -20.248091 -13.329216
RightArm 47.108193 -21.798733 49.419753
RightForeArm -4.789065 0.000000 111.149050
RightHand 0.666150 -0.000000 -21.427135
RightHandThumb1 -24.326973 -0.000000 -32.862282
LeftShoulder -16.011672 33.555114 -0.598730
LeftArm 57.815787 12.926072 -54.635899
LeftForeArm 28.259789 -0.000000 102.692866
LeftHand -20.897085 0.000000 1.890103
LeftHandThumb1 -26.253704 0.000000 33.147579
Head 0.286855 3.249756 3.828887
